<svg width="512" height="512" fill="none" xmlns="http://www.w3.org/2000/svg"><path fill="#fff" d="M0 0h512v512H0z"/><path d="M469.667 96h-320v298.667h124.8l125.312 83.541c4.917 3.253 11.53 1.909 14.784-3.008a10.618 10.618 0 001.77-5.867v-74.666h53.334c17.674 0 32-14.326 32-32V128c0-17.675-14.326-32-32-32z" fill="url(#paint0_linear_1_26)"/><path d="M384.333 32H43c-17.675 0-32 14.325-32 32v224c0 17.675 14.325 32 32 32h53.333v96c0 5.888 4.779 10.667 10.667 10.667 2.219 0 4.395-.694 6.197-1.984L259.747 320h124.586c17.675 0 32-14.325 32-32V64c0-17.675-14.325-32-32-32z" fill="url(#paint1_linear_1_26)"/><path d="M212.106 71.143a107.14 107.14 0 00-104.078 81.851 107.13 107.13 0 00-.768 47.18A107.145 107.145 0 00254.963 276.5l9.818-4.286-8.572-19.643-9.818 4.286a85.712 85.712 0 01-99.767-23.25 85.714 85.714 0 11151.196-55.321v17.857a14.284 14.284 0 01-24.387 10.101 14.285 14.285 0 01-4.185-10.101v-67.857H247.82v5.464a57.14 57.14 0 00-62.507-6.011 57.148 57.148 0 00-18.453 85.574 57.145 57.145 0 0087.478 3.33 35.68 35.68 0 0039.974 13.558 35.683 35.683 0 0024.936-34.058v-17.857A107.262 107.262 0 00212.106 71.143zm0 142.857a35.716 35.716 0 01-35.028-42.682 35.711 35.711 0 0148.695-26.028 35.713 35.713 0 0122.047 32.996A35.756 35.756 0 01212.106 214z" fill="#29A0EA"/><defs><linearGradient id="paint0_linear_1_26" x1="256.333" y1="32" x2="256.333" y2="479.983" gradientUnits="userSpaceOnUse"><stop stop-color="#60BEF6"/><stop offset="1" stop-color="#29A0EA"/></linearGradient><linearGradient id="paint1_linear_1_26" x1="256.333" y1="32" x2="256.333" y2="479.983" gradientUnits="userSpaceOnUse"><stop stop-color="#DEF2FD"/><stop offset="1" stop-color="#9ED9FA"/></linearGradient></defs></svg>